<svg width="496" height="153" viewBox="0 0 496 153" fill="none" xmlns="http://www.w3.org/2000/svg">
<g clip-path="url(#clip0)">
<path d="M177.328 115.202L149.646 90.311C141.78 83.2403 137.282 73.0858 137.282 62.4467V26.7188C137.282 11.9607 125.483 0 110.925 0H58.6676C50.7801 0 38.1557 2.37892 35.244 3.5023L23.1411 7.2469C8.97397 11.3219 0 22.2914 0 36.631V36.7852L8.10482 129.321C8.66977 135.797 11.6031 141.81 16.34 146.194C21.0769 150.599 27.2261 153 33.6578 153H147.582C151.406 153 154.969 151.744 157.859 149.564V149.586L175.699 137.449C182.782 132.779 184.651 121.788 177.328 115.202Z" fill="#FF4785"/>
<path d="M150.559 121.347L125.179 98.5268C117.966 92.0508 113.837 82.7554 113.837 72.9754V40.2211C113.837 26.6965 103.016 15.7271 89.6747 15.7271H34.1143C20.7728 15.7271 9.9519 26.6965 9.9519 40.2211L17.3831 124.915C18.3175 135.598 27.1393 143.77 37.7212 143.77H67.2289H89.6964H142.171C153.796 143.77 159.25 129.166 150.559 121.347Z" fill="white"/>
<mask id="mask0" mask-type="alpha" maskUnits="userSpaceOnUse" x="7" y="13" width="114" height="144">
<path fill-rule="evenodd" clip-rule="evenodd" d="M12.0162 144.938L7.67045 27.4459C7.51835 23.5691 10.4517 20.2871 14.276 20.0448L112.859 13.7891C116.749 13.5468 120.095 16.5425 120.356 20.4853C120.356 20.6395 120.377 20.7937 120.377 20.9259V148.947C120.377 152.89 117.227 156.106 113.316 156.106C113.207 156.106 113.098 156.106 112.99 156.106L18.7521 151.833C15.08 151.657 12.1466 148.661 12.0162 144.938Z" fill="white"/>
</mask>
<g mask="url(#mask0)">
<path d="M73.5733 67.4247C73.5733 70.2001 92.0644 68.8785 94.5632 66.9181C94.5632 47.9528 84.5245 37.9966 66.142 37.9966C47.7595 37.9966 37.4601 48.107 37.4601 63.2836C37.4601 89.7161 72.6606 90.2227 72.6606 104.65C72.6606 108.703 70.7051 111.104 66.4028 111.104C60.7968 111.104 58.5804 108.197 58.8412 98.3287C58.8412 96.1921 37.4601 95.5313 36.8082 98.3287C35.1568 122.228 49.8455 129.123 66.6635 129.123C82.9601 129.123 95.7366 120.312 95.7366 104.386C95.7366 76.0593 60.0145 76.8083 60.0145 62.777C60.0145 57.094 64.1864 56.3231 66.6635 56.3231C69.271 56.3451 73.9644 56.8077 73.5733 67.4247Z" fill="#FF4785"/>
</g>
<mask id="mask1" mask-type="alpha" maskUnits="userSpaceOnUse" x="-5" y="12" width="116" height="146">
<path fill-rule="evenodd" clip-rule="evenodd" d="M0.260995 145.974L-4.14994 26.8512C-4.30204 22.9084 -1.3252 19.5823 2.56424 19.34L102.516 12.9962C106.471 12.7539 109.861 15.7936 110.1 19.7805C110.1 19.9347 110.122 20.0889 110.122 20.2431V150.049C110.122 154.058 106.927 157.296 102.973 157.296C102.864 157.296 102.756 157.296 102.647 157.296L7.08382 152.956C3.36821 152.78 0.391368 149.74 0.260995 145.974Z" fill="white"/>
</mask>
<g mask="url(#mask1)">
<path d="M80.2223 30.7277L80.8959 14.0752L94.6285 12.9739L95.2151 30.133C95.2369 30.7277 94.7806 31.2343 94.1939 31.2563C93.9331 31.2563 93.6941 31.1903 93.4986 31.014L88.1968 26.7848L81.9389 31.6088C81.4608 31.9612 80.809 31.8731 80.4396 31.4105C80.2875 31.2343 80.2006 30.97 80.2223 30.7277Z" fill="#FF4785"/>
</g>
</g>
<g clip-path="url(#clip1)">
<path d="M260.438 34.8639C260.438 40.1667 259.749 44.6875 258.347 48.4507C256.946 52.214 254.954 55.2686 252.347 57.6634C249.74 60.0337 246.568 61.7932 242.855 62.8928C239.141 64.0169 234.69 64.5545 229.551 64.5545H215.681C214.697 64.5545 213.861 64.2613 213.197 63.6748C212.533 63.0883 212.189 62.1597 212.189 60.8402V10.5493C212.189 9.22976 212.533 8.30117 213.197 7.71468C213.861 7.1282 214.697 6.83496 215.681 6.83496H230.583C235.748 6.83496 240.15 7.44588 243.74 8.64328C247.355 9.84068 250.38 11.6246 252.839 13.9949C255.298 16.3653 257.192 19.2733 258.47 22.7433C259.774 26.2622 260.438 30.2698 260.438 34.8639ZM248.216 35.2549C248.216 32.518 247.896 29.9766 247.257 27.6306C246.617 25.2847 245.584 23.2565 244.158 21.5214C242.732 19.7864 240.912 18.4424 238.674 17.4894C236.436 16.5363 233.51 16.0476 229.895 16.0476H223.944V55.293H230.092C233.313 55.293 236.043 54.8776 238.256 54.0467C240.469 53.2159 242.314 51.9696 243.789 50.2835C245.265 48.5974 246.371 46.5202 247.109 44.0277C247.847 41.4863 248.216 38.5783 248.216 35.2549Z" fill="black"/>
<path d="M306.423 41.999C306.423 43.3674 306.128 44.3693 305.513 45.0291C304.898 45.6889 304.062 46.0066 302.98 46.0066H278.61C278.61 47.6927 278.806 49.2323 279.225 50.6251C279.618 52.018 280.282 53.191 281.143 54.144C282.028 55.1215 283.159 55.8546 284.561 56.3433C285.963 56.8565 287.61 57.1009 289.553 57.1009C291.52 57.1009 293.266 56.9543 294.766 56.6855C296.266 56.3922 297.545 56.099 298.652 55.7569C299.734 55.4148 300.644 55.0971 301.357 54.8283C302.07 54.535 302.66 54.4128 303.103 54.4128C303.373 54.4128 303.595 54.4617 303.767 54.5595C303.939 54.6572 304.087 54.8527 304.21 55.1215C304.333 55.3903 304.406 55.7569 304.455 56.2456C304.505 56.7343 304.529 57.3453 304.529 58.1028C304.529 58.7626 304.505 59.3246 304.48 59.7645C304.455 60.2288 304.406 60.6198 304.357 60.9375C304.308 61.2551 304.21 61.5484 304.087 61.7683C303.964 61.9882 303.816 62.2082 303.619 62.4037C303.423 62.5992 302.906 62.8924 302.021 63.2589C301.16 63.6255 300.054 63.9676 298.701 64.3097C297.349 64.6518 295.824 64.9451 294.078 65.2139C292.332 65.4583 290.487 65.6049 288.52 65.6049C284.954 65.6049 281.831 65.165 279.175 64.2609C276.495 63.3811 274.257 62.0127 272.462 60.2044C270.667 58.396 269.339 56.099 268.453 53.3376C267.568 50.5763 267.125 47.3262 267.125 43.6118C267.125 40.0685 267.593 36.8917 268.527 34.057C269.462 31.2224 270.79 28.8031 272.56 26.8238C274.331 24.8444 276.47 23.3293 279.003 22.303C281.536 21.2522 284.389 20.739 287.561 20.739C290.906 20.739 293.783 21.2277 296.144 22.2052C298.529 23.1827 300.472 24.5511 301.996 26.2862C303.521 28.0212 304.652 30.0738 305.365 32.4686C306.079 34.839 306.447 37.4293 306.447 40.2151V41.999H306.423ZM295.48 38.7733C295.578 35.621 294.939 33.1529 293.561 31.3446C292.209 29.5362 290.094 28.6565 287.266 28.6565C285.84 28.6565 284.585 28.9253 283.528 29.4629C282.471 30.0005 281.585 30.7092 280.872 31.6134C280.159 32.5175 279.643 33.5927 279.249 34.8146C278.88 36.0364 278.659 37.356 278.61 38.7733H295.48Z" fill="black"/>
<path d="M343.876 51.7981C343.876 54.0463 343.458 56.0501 342.597 57.7851C341.736 59.5201 340.531 60.9619 338.982 62.1104C337.433 63.2589 335.588 64.1387 333.473 64.7252C331.359 65.3116 329.047 65.6049 326.563 65.6049C325.063 65.6049 323.637 65.4827 322.284 65.2628C320.932 65.0428 319.702 64.7496 318.62 64.4075C317.538 64.0654 316.653 63.7232 315.94 63.3567C315.227 62.9901 314.71 62.6725 314.366 62.3548C314.046 62.0371 313.776 61.5484 313.604 60.8886C313.431 60.2288 313.333 59.2269 313.333 57.9317C313.333 57.0765 313.358 56.3678 313.431 55.8546C313.481 55.3414 313.579 54.926 313.702 54.6083C313.825 54.2907 313.972 54.0952 314.145 53.9974C314.317 53.8997 314.538 53.8508 314.808 53.8508C315.128 53.8508 315.62 54.0463 316.259 54.4128C316.899 54.7794 317.71 55.1948 318.669 55.6347C319.628 56.0745 320.735 56.49 322.014 56.881C323.293 57.2719 324.719 57.4674 326.342 57.4674C327.35 57.4674 328.26 57.3697 329.047 57.1498C329.834 56.9543 330.523 56.6366 331.113 56.2456C331.703 55.8546 332.146 55.3659 332.441 54.7794C332.736 54.1929 332.883 53.5087 332.883 52.7267C332.883 51.8226 332.613 51.065 332.047 50.4297C331.506 49.7943 330.768 49.2323 329.859 48.768C328.949 48.3037 327.916 47.8394 326.76 47.4239C325.604 47.0085 324.424 46.5442 323.219 46.031C322.014 45.5179 320.833 44.9558 319.678 44.296C318.522 43.6362 317.489 42.8298 316.579 41.8768C315.669 40.9238 314.931 39.7752 314.39 38.4312C313.825 37.0872 313.554 35.4988 313.554 33.6172C313.554 31.7111 313.923 29.9761 314.686 28.3877C315.423 26.7993 316.505 25.4309 317.907 24.3068C319.309 23.1827 321.03 22.303 323.047 21.6676C325.063 21.0567 327.326 20.739 329.834 20.739C331.088 20.739 332.318 20.8368 333.498 21.0078C334.678 21.1789 335.761 21.3988 336.695 21.6676C337.629 21.9364 338.466 22.2297 339.13 22.5473C339.794 22.8406 340.261 23.1094 340.531 23.3293C340.826 23.5492 341.023 23.7692 341.146 23.9891C341.269 24.209 341.343 24.4778 341.417 24.7955C341.466 25.1132 341.54 25.5042 341.564 25.944C341.613 26.4083 341.638 26.9704 341.638 27.6546C341.638 28.461 341.613 29.1208 341.564 29.6096C341.515 30.1227 341.441 30.5137 341.343 30.807C341.244 31.1002 341.097 31.2957 340.925 31.4179C340.753 31.5156 340.531 31.5645 340.31 31.5645C340.039 31.5645 339.621 31.4179 339.056 31.1002C338.49 30.7825 337.777 30.4648 336.916 30.0983C336.056 29.7317 335.072 29.4141 333.965 29.0964C332.859 28.7787 331.555 28.6321 330.129 28.6321C329.121 28.6321 328.235 28.7298 327.473 28.9498C326.735 29.1697 326.121 29.4629 325.629 29.8539C325.137 30.2449 324.793 30.6848 324.547 31.2224C324.301 31.7355 324.178 32.2976 324.178 32.8841C324.178 33.8127 324.473 34.5702 325.039 35.2056C325.604 35.8409 326.367 36.3785 327.276 36.8428C328.211 37.3316 329.268 37.7714 330.449 38.1868C331.629 38.6023 332.834 39.0666 334.039 39.5553C335.244 40.044 336.449 40.6061 337.629 41.2659C338.81 41.9257 339.867 42.7321 340.802 43.6851C341.736 44.6381 342.474 45.7622 343.04 47.1063C343.605 48.4258 343.876 49.9898 343.876 51.7981Z" fill="black"/>
<path d="M364.533 9.79151C364.533 12.0397 364.065 13.6036 363.131 14.4834C362.196 15.3386 360.475 15.7785 357.967 15.7785C355.434 15.7785 353.712 15.3631 352.827 14.5322C351.942 13.7014 351.499 12.1863 351.499 10.0359C351.499 7.78769 351.966 6.19931 352.876 5.34402C353.786 4.43986 355.507 4 358.065 4C360.573 4 362.27 4.41542 363.18 5.27071C364.09 6.126 364.533 7.61664 364.533 9.79151ZM363.672 63.0392C363.672 63.3324 363.573 63.6012 363.401 63.8211C363.229 64.0411 362.91 64.2366 362.491 64.3832C362.049 64.5298 361.483 64.652 360.77 64.7253C360.057 64.7986 359.147 64.8475 358.04 64.8475C356.934 64.8475 356.024 64.7986 355.311 64.7253C354.598 64.652 354.007 64.5298 353.589 64.3832C353.147 64.2366 352.852 64.0411 352.679 63.8211C352.507 63.6012 352.409 63.3324 352.409 63.0392V23.3539C352.409 23.0607 352.507 22.7919 352.679 22.5719C352.852 22.352 353.171 22.1565 353.589 21.9854C354.032 21.8144 354.598 21.6922 355.311 21.6189C356.024 21.5211 356.934 21.4723 358.04 21.4723C359.147 21.4723 360.057 21.5211 360.77 21.6189C361.483 21.7166 362.073 21.8388 362.491 21.9854C362.934 22.1565 363.229 22.352 363.401 22.5719C363.573 22.7919 363.672 23.0607 363.672 23.3539V63.0392Z" fill="black"/>
<path d="M411.011 26.0177C411.011 27.435 410.839 28.5103 410.519 29.1945C410.2 29.8787 409.782 30.2208 409.314 30.2208H404.593C405.257 30.9295 405.724 31.7359 406.019 32.6645C406.314 33.5687 406.437 34.5217 406.437 35.4992C406.437 37.8206 406.044 39.8733 405.281 41.6817C404.519 43.49 403.388 45.0051 401.937 46.2269C400.486 47.4487 398.74 48.4018 396.699 49.0371C394.658 49.6725 392.371 49.9901 389.863 49.9901C388.584 49.9901 387.354 49.8435 386.174 49.5258C384.993 49.2082 384.108 48.8416 383.493 48.4262C383.124 48.8172 382.805 49.2815 382.534 49.8191C382.239 50.3567 382.116 50.9432 382.116 51.603C382.116 52.4583 382.51 53.1669 383.247 53.729C384.01 54.2666 385.092 54.5843 386.444 54.6331L396.183 54.9997C398.445 55.0974 400.486 55.4151 402.257 55.9527C404.027 56.4903 405.527 57.2723 406.757 58.2742C407.962 59.2761 408.896 60.4735 409.536 61.8664C410.175 63.2593 410.495 64.8477 410.495 66.6316C410.495 68.5865 410.052 70.4437 409.192 72.1787C408.331 73.9137 407.027 75.4288 405.281 76.6995C403.535 77.9702 401.371 78.9966 398.765 79.7297C396.158 80.4628 393.084 80.8538 389.592 80.8538C386.174 80.8538 383.272 80.5849 380.862 80.0473C378.452 79.5097 376.485 78.7766 374.936 77.8236C373.386 76.8706 372.28 75.7465 371.566 74.4024C370.853 73.0829 370.509 71.6411 370.509 70.0527C370.509 69.0752 370.632 68.1466 370.903 67.2425C371.173 66.3383 371.542 65.5075 372.034 64.6766C372.526 63.8702 373.14 63.0882 373.853 62.3307C374.567 61.5732 375.403 60.8645 376.313 60.1803C375.034 59.496 374.026 58.5674 373.337 57.3945C372.649 56.2215 372.28 54.9264 372.28 53.5335C372.28 51.774 372.673 50.1856 373.485 48.7439C374.296 47.3021 375.329 46.007 376.632 44.834C375.575 43.7832 374.739 42.5369 374.124 41.0952C373.509 39.629 373.19 37.8206 373.19 35.6458C373.19 33.3243 373.608 31.2472 374.419 29.4388C375.231 27.6061 376.386 26.0666 377.862 24.7959C379.337 23.5252 381.083 22.5721 383.1 21.8879C385.116 21.2037 387.379 20.886 389.838 20.886C391.092 20.886 392.297 20.9593 393.453 21.1059C394.609 21.2525 395.666 21.4725 396.65 21.7413H409.339C409.855 21.7413 410.249 22.0589 410.569 22.7187C410.888 23.3785 411.011 24.4782 411.011 26.0177ZM399.158 67.1692C399.158 65.8252 398.617 64.7988 397.535 64.0901C396.453 63.3815 394.978 62.9905 393.084 62.9416L385.043 62.7217C384.256 63.2837 383.641 63.8213 383.174 64.359C382.706 64.8966 382.338 65.3853 382.042 65.8496C381.747 66.3139 381.575 66.7782 381.477 67.2425C381.378 67.6823 381.354 68.1466 381.354 68.6354C381.354 70.126 382.116 71.2501 383.616 72.0321C385.116 72.8141 387.256 73.1806 390.01 73.1806C391.707 73.1806 393.158 73.0096 394.314 72.6674C395.469 72.3253 396.429 71.861 397.142 71.299C397.855 70.7369 398.371 70.1016 398.666 69.3929C399.011 68.6843 399.158 67.9511 399.158 67.1692ZM396.527 35.4258C396.527 33.2754 395.937 31.6137 394.732 30.4408C393.527 29.2434 391.854 28.6569 389.666 28.6569C388.559 28.6569 387.6 28.8524 386.739 29.2189C385.903 29.5855 385.215 30.0986 384.649 30.734C384.108 31.3693 383.69 32.1269 383.42 32.9577C383.149 33.7886 383.026 34.6927 383.026 35.5969C383.026 37.6252 383.616 39.2135 384.821 40.3865C386.026 41.5595 387.674 42.146 389.789 42.146C390.92 42.146 391.904 41.9749 392.764 41.6083C393.6 41.2418 394.289 40.7531 394.855 40.1421C395.42 39.5068 395.838 38.7981 396.109 37.9917C396.379 37.1853 396.527 36.33 396.527 35.4258Z" fill="black"/>
<path d="M456.726 63.0393C456.726 63.3325 456.628 63.6013 456.456 63.8213C456.284 64.0412 455.964 64.2367 455.546 64.3833C455.128 64.5299 454.562 64.6521 453.825 64.7254C453.087 64.7987 452.177 64.8476 451.12 64.8476C450.013 64.8476 449.103 64.7987 448.365 64.7254C447.628 64.6521 447.062 64.5299 446.644 64.3833C446.226 64.2367 445.931 64.0412 445.734 63.8213C445.562 63.6013 445.463 63.3325 445.463 63.0393V40.3375C445.463 38.407 445.316 36.892 445.045 35.7923C444.75 34.6927 444.357 33.7396 443.816 32.9577C443.275 32.1757 442.586 31.5648 441.726 31.1249C440.865 30.685 439.881 30.4895 438.75 30.4895C437.324 30.4895 435.873 31.0027 434.397 32.0535C432.922 33.1043 431.397 34.6194 429.823 36.5987V63.0393C429.823 63.3325 429.725 63.6013 429.553 63.8213C429.381 64.0412 429.061 64.2367 428.643 64.3833C428.2 64.5299 427.635 64.6521 426.921 64.7254C426.208 64.7987 425.298 64.8476 424.192 64.8476C423.085 64.8476 422.175 64.7987 421.462 64.7254C420.749 64.6521 420.159 64.5299 419.741 64.3833C419.298 64.2367 419.003 64.0412 418.831 63.8213C418.659 63.6013 418.56 63.3325 418.56 63.0393V23.2563C418.56 22.963 418.634 22.6942 418.782 22.4743C418.929 22.2544 419.2 22.0589 419.593 21.9122C419.987 21.7656 420.478 21.6434 421.093 21.5701C421.708 21.4968 422.47 21.4479 423.405 21.4479C424.364 21.4479 425.151 21.4968 425.79 21.5701C426.43 21.6434 426.897 21.7656 427.241 21.9122C427.585 22.0589 427.831 22.2544 427.979 22.4743C428.126 22.6942 428.2 22.963 428.2 23.2563V27.8504C430.413 25.48 432.676 23.6961 434.963 22.4987C437.25 21.3013 439.635 20.7148 442.119 20.7148C444.849 20.7148 447.136 21.1547 449.005 22.0589C450.874 22.963 452.398 24.1604 453.53 25.6999C454.685 27.2395 455.521 29.0233 456.013 31.076C456.53 33.1287 456.776 35.5968 456.776 38.4804V63.0393H456.726Z" fill="black"/>
<path d="M496 51.7981C496 54.0463 495.582 56.0501 494.721 57.7851C493.86 59.5201 492.655 60.9619 491.106 62.1104C489.557 63.2589 487.712 64.1387 485.598 64.7252C483.483 65.3116 481.171 65.6049 478.687 65.6049C477.187 65.6049 475.761 65.4827 474.408 65.2628C473.056 65.0428 471.826 64.7496 470.744 64.4075C469.662 64.0654 468.777 63.7232 468.064 63.3567C467.351 62.9901 466.834 62.6725 466.49 62.3548C466.17 62.0371 465.9 61.5484 465.728 60.8886C465.555 60.2288 465.457 59.2269 465.457 57.9317C465.457 57.0765 465.482 56.3678 465.555 55.8546C465.605 55.3414 465.703 54.926 465.826 54.6083C465.949 54.2907 466.096 54.0952 466.269 53.9974C466.441 53.8997 466.662 53.8508 466.933 53.8508C467.252 53.8508 467.744 54.0463 468.383 54.4128C469.023 54.7794 469.834 55.1948 470.793 55.6347C471.752 56.0745 472.859 56.49 474.138 56.881C475.417 57.2719 476.843 57.4674 478.466 57.4674C479.474 57.4674 480.384 57.3697 481.171 57.1498C481.958 56.9543 482.647 56.6366 483.237 56.2456C483.827 55.8546 484.27 55.3659 484.565 54.7794C484.86 54.1929 485.007 53.5087 485.007 52.7267C485.007 51.8226 484.737 51.065 484.171 50.4297C483.63 49.7943 482.892 49.2323 481.983 48.768C481.073 48.3037 480.04 47.8394 478.884 47.4239C477.728 47.0085 476.548 46.5442 475.343 46.031C474.138 45.5179 472.957 44.9558 471.802 44.296C470.646 43.6362 469.613 42.8298 468.703 41.8768C467.793 40.9238 467.055 39.7752 466.514 38.4312C465.949 37.0872 465.678 35.4988 465.678 33.6172C465.678 31.7111 466.047 29.9761 466.81 28.3877C467.547 26.7993 468.629 25.4309 470.031 24.3068C471.433 23.1827 473.154 22.303 475.171 21.6676C477.187 21.0567 479.45 20.739 481.958 20.739C483.212 20.739 484.442 20.8368 485.622 21.0078C486.803 21.1789 487.885 21.3988 488.819 21.6676C489.754 21.9364 490.59 22.2297 491.254 22.5473C491.918 22.865 492.385 23.1338 492.68 23.3537C492.975 23.5737 493.172 23.7936 493.295 24.0135C493.418 24.2335 493.491 24.5023 493.565 24.82C493.614 25.1376 493.688 25.5286 493.713 25.9685C493.762 26.4328 493.787 26.9948 493.787 27.679C493.787 28.4855 493.762 29.1453 493.713 29.634C493.664 30.1472 493.59 30.5381 493.491 30.8314C493.393 31.1246 493.246 31.3201 493.073 31.4423C492.901 31.5401 492.68 31.5889 492.459 31.5889C492.188 31.5889 491.77 31.4423 491.204 31.1246C490.639 30.807 489.926 30.4893 489.065 30.1227C488.204 29.7562 487.221 29.4385 486.114 29.1208C485.007 28.8031 483.704 28.6565 482.278 28.6565C481.269 28.6565 480.384 28.7543 479.622 28.9742C478.884 29.1941 478.269 29.4874 477.777 29.8784C477.286 30.2693 476.941 30.7092 476.695 31.2468C476.449 31.76 476.327 32.322 476.327 32.9085C476.327 33.8371 476.622 34.5946 477.187 35.23C477.753 35.8654 478.515 36.403 479.425 36.8673C480.36 37.356 481.417 37.7959 482.597 38.2113C483.778 38.6267 484.983 39.091 486.188 39.5797C487.393 40.0685 488.598 40.6305 489.778 41.2903C490.958 41.9501 492.016 42.7565 492.95 43.7096C493.885 44.6626 494.623 45.7867 495.188 47.1307C495.705 48.4258 496 49.9898 496 51.7981Z" fill="black"/>
<path d="M259.749 139.599C260.118 140.674 260.339 141.505 260.413 142.141C260.511 142.776 260.388 143.24 260.044 143.558C259.724 143.876 259.134 144.071 258.298 144.144C257.462 144.218 256.306 144.267 254.83 144.267C253.306 144.267 252.125 144.242 251.265 144.193C250.404 144.144 249.765 144.071 249.322 143.925C248.879 143.778 248.56 143.607 248.387 143.362C248.215 143.118 248.068 142.825 247.945 142.434L244.035 130.851H222.247L218.558 142.141C218.435 142.556 218.287 142.898 218.091 143.191C217.894 143.485 217.574 143.705 217.156 143.851C216.714 144.022 216.099 144.12 215.312 144.193C214.525 144.267 213.467 144.291 212.189 144.291C210.812 144.291 209.73 144.242 208.967 144.169C208.205 144.096 207.639 143.876 207.344 143.534C207.049 143.191 206.951 142.703 207.024 142.092C207.123 141.456 207.344 140.626 207.688 139.599L225.591 88.4043C225.763 87.8911 225.985 87.5001 226.23 87.1824C226.476 86.8647 226.845 86.6448 227.386 86.4738C227.903 86.3027 228.64 86.2049 229.55 86.1561C230.46 86.1072 231.714 86.0828 233.239 86.0828C235.01 86.0828 236.411 86.1072 237.469 86.1561C238.526 86.2049 239.338 86.3027 239.903 86.4738C240.494 86.6448 240.912 86.8892 241.158 87.2069C241.403 87.5245 241.625 87.9888 241.797 88.5509L259.749 139.599ZM233.092 97.2748H233.067L224.853 121.809H241.33L233.092 97.2748Z" fill="black"/>
<path d="M305.169 142.459C305.169 142.776 305.095 143.07 304.948 143.29C304.8 143.509 304.554 143.705 304.185 143.852C303.816 143.998 303.349 144.096 302.734 144.169C302.12 144.218 301.382 144.267 300.472 144.267C299.513 144.267 298.726 144.243 298.136 144.169C297.546 144.12 297.054 143.998 296.685 143.852C296.316 143.705 296.045 143.509 295.873 143.29C295.701 143.07 295.627 142.801 295.627 142.459V138.036C293.562 140.235 291.398 141.946 289.135 143.167C286.873 144.389 284.364 145 281.61 145C278.561 145 275.979 144.414 273.864 143.241C271.749 142.068 270.028 140.479 268.7 138.5C267.372 136.521 266.413 134.175 265.798 131.511C265.208 128.847 264.888 126.037 264.888 123.105C264.888 119.561 265.281 116.385 266.019 113.574C266.781 110.74 267.888 108.345 269.364 106.341C270.839 104.362 272.659 102.822 274.848 101.747C277.036 100.672 279.545 100.134 282.373 100.134C284.61 100.134 286.651 100.599 288.471 101.503C290.291 102.407 292.111 103.751 293.906 105.486V83.9571C293.906 83.6639 293.98 83.3951 294.152 83.1507C294.324 82.9063 294.619 82.7108 295.062 82.5398C295.504 82.3687 296.07 82.2465 296.783 82.1488C297.496 82.051 298.406 82.0266 299.513 82.0266C300.619 82.0266 301.529 82.0755 302.243 82.1488C302.956 82.2465 303.521 82.3687 303.939 82.5398C304.357 82.7108 304.653 82.9063 304.849 83.1507C305.021 83.3951 305.12 83.6639 305.12 83.9571V142.459H305.169ZM293.931 115.871C292.308 113.843 290.758 112.304 289.283 111.229C287.807 110.153 286.258 109.616 284.635 109.616C283.159 109.616 281.905 109.982 280.848 110.715C279.79 111.448 278.93 112.426 278.29 113.648C277.651 114.87 277.159 116.238 276.864 117.729C276.569 119.219 276.397 120.759 276.397 122.347C276.397 124.009 276.52 125.622 276.79 127.21C277.061 128.799 277.503 130.191 278.118 131.413C278.733 132.635 279.545 133.637 280.553 134.37C281.561 135.103 282.864 135.494 284.414 135.494C285.176 135.494 285.938 135.372 286.676 135.152C287.414 134.932 288.152 134.566 288.914 134.052C289.676 133.539 290.463 132.879 291.275 132.073C292.086 131.267 292.972 130.24 293.931 129.067V115.871Z" fill="black"/>
<path d="M354.476 142.459C354.476 142.776 354.402 143.07 354.254 143.29C354.107 143.509 353.861 143.705 353.492 143.852C353.123 143.998 352.656 144.096 352.041 144.169C351.426 144.218 350.664 144.267 349.779 144.267C348.82 144.267 348.033 144.243 347.443 144.169C346.852 144.096 346.361 143.998 345.992 143.852C345.623 143.705 345.352 143.509 345.18 143.29C345.008 143.07 344.934 142.801 344.934 142.459V138.036C342.869 140.235 340.705 141.946 338.442 143.167C336.18 144.389 333.671 145 330.917 145C327.868 145 325.286 144.414 323.171 143.241C321.056 142.068 319.334 140.479 318.007 138.5C316.679 136.521 315.719 134.175 315.105 131.511C314.49 128.847 314.195 126.037 314.195 123.105C314.195 119.561 314.588 116.385 315.351 113.574C316.113 110.74 317.22 108.345 318.695 106.341C320.171 104.362 321.99 102.822 324.179 101.747C326.368 100.672 328.876 100.134 331.729 100.134C333.966 100.134 336.008 100.599 337.827 101.503C339.647 102.407 341.467 103.751 343.262 105.486V83.9571C343.262 83.6639 343.336 83.3951 343.508 83.1507C343.68 82.9063 343.975 82.7108 344.418 82.5398C344.861 82.3687 345.426 82.2465 346.139 82.1488C346.852 82.051 347.762 82.0266 348.869 82.0266C349.976 82.0266 350.885 82.0755 351.599 82.1488C352.312 82.2465 352.877 82.3687 353.295 82.5398C353.713 82.7108 354.009 82.9063 354.205 83.1507C354.377 83.3951 354.476 83.6639 354.476 83.9571V142.459ZM343.262 115.871C341.639 113.843 340.09 112.304 338.614 111.229C337.139 110.153 335.589 109.616 333.966 109.616C332.491 109.616 331.237 109.982 330.179 110.715C329.122 111.448 328.261 112.426 327.622 113.648C326.982 114.87 326.491 116.238 326.196 117.729C325.876 119.219 325.728 120.759 325.728 122.347C325.728 124.009 325.851 125.622 326.122 127.21C326.392 128.774 326.835 130.191 327.45 131.413C328.064 132.635 328.876 133.637 329.884 134.37C330.893 135.103 332.196 135.494 333.745 135.494C334.532 135.494 335.27 135.372 336.008 135.152C336.745 134.932 337.483 134.566 338.245 134.052C339.008 133.539 339.795 132.879 340.606 132.073C341.418 131.267 342.303 130.24 343.262 129.067V115.871Z" fill="black"/>
<path d="M406.29 122.151C406.29 125.548 405.847 128.627 404.937 131.413C404.052 134.198 402.675 136.618 400.855 138.646C399.035 140.674 396.748 142.238 393.994 143.338C391.24 144.437 388.018 144.999 384.354 144.999C380.788 144.999 377.69 144.511 375.058 143.533C372.427 142.556 370.238 141.114 368.517 139.257C366.771 137.375 365.492 135.078 364.656 132.341C363.82 129.604 363.402 126.476 363.402 122.982C363.402 119.585 363.869 116.482 364.779 113.696C365.689 110.886 367.066 108.491 368.886 106.463C370.706 104.459 372.993 102.895 375.722 101.795C378.452 100.696 381.673 100.158 385.338 100.158C388.928 100.158 392.026 100.647 394.658 101.6C397.289 102.553 399.478 103.995 401.174 105.852C402.896 107.733 404.175 110.03 405.011 112.767C405.871 115.48 406.29 118.632 406.29 122.151ZM394.682 122.615C394.682 120.66 394.535 118.852 394.215 117.19C393.895 115.553 393.379 114.111 392.617 112.89C391.879 111.668 390.871 110.715 389.641 110.03C388.411 109.346 386.838 109.004 384.944 109.004C383.272 109.004 381.796 109.297 380.542 109.908C379.288 110.519 378.255 111.399 377.444 112.572C376.632 113.745 376.042 115.162 375.624 116.799C375.206 118.437 375.009 120.318 375.009 122.444C375.009 124.399 375.181 126.208 375.501 127.869C375.821 129.531 376.362 130.948 377.099 132.17C377.837 133.392 378.821 134.345 380.075 135.005C381.329 135.665 382.878 136.007 384.747 136.007C386.444 136.007 387.92 135.713 389.198 135.103C390.453 134.492 391.485 133.612 392.297 132.463C393.108 131.315 393.699 129.897 394.092 128.26C394.486 126.623 394.682 124.717 394.682 122.615Z" fill="black"/>
<path d="M453.456 142.458C453.456 142.751 453.357 143.02 453.185 143.24C453.013 143.46 452.693 143.656 452.275 143.802C451.857 143.949 451.292 144.071 450.554 144.144C449.816 144.218 448.906 144.267 447.849 144.267C446.742 144.267 445.832 144.218 445.095 144.144C444.357 144.071 443.791 143.949 443.373 143.802C442.955 143.656 442.66 143.46 442.463 143.24C442.291 143.02 442.193 142.751 442.193 142.458V119.756C442.193 117.826 442.045 116.311 441.775 115.211C441.48 114.112 441.086 113.159 440.545 112.377C440.004 111.595 439.316 110.984 438.455 110.544C437.594 110.104 436.61 109.908 435.479 109.908C434.053 109.908 432.602 110.422 431.127 111.472C429.651 112.523 428.126 114.038 426.552 116.018V142.458C426.552 142.751 426.454 143.02 426.282 143.24C426.11 143.46 425.79 143.656 425.372 143.802C424.929 143.949 424.364 144.071 423.651 144.144C422.938 144.218 422.028 144.267 420.921 144.267C419.814 144.267 418.905 144.218 418.191 144.144C417.478 144.071 416.888 143.949 416.47 143.802C416.027 143.656 415.732 143.46 415.56 143.24C415.388 143.02 415.29 142.751 415.29 142.458V102.675C415.29 102.382 415.363 102.113 415.511 101.893C415.658 101.673 415.929 101.478 416.322 101.331C416.716 101.185 417.208 101.062 417.822 100.989C418.437 100.916 419.2 100.867 420.134 100.867C421.093 100.867 421.88 100.916 422.519 100.989C423.159 101.062 423.626 101.185 423.97 101.331C424.315 101.478 424.561 101.673 424.708 101.893C424.856 102.113 424.929 102.382 424.929 102.675V107.269C427.143 104.899 429.405 103.115 431.692 101.918C433.979 100.72 436.365 100.134 438.848 100.134C441.578 100.134 443.865 100.574 445.734 101.478C447.603 102.382 449.128 103.579 450.259 105.119C451.415 106.658 452.251 108.442 452.743 110.495C453.259 112.548 453.505 115.016 453.505 117.899V142.458H453.456Z" fill="black"/>
</g>
<defs>
<clipPath id="clip0">
<rect width="182" height="153" fill="white"/>
</clipPath>
<clipPath id="clip1">
<rect x="207" y="4" width="289" height="141" fill="white"/>
</clipPath>
</defs>
</svg>
