<svg width="293" height="245" viewBox="0 0 293 245" fill="none" xmlns="http://www.w3.org/2000/svg">
<g clip-path="url(#clip0)">
<path d="M285.479 184.473L240.913 144.616C228.25 133.293 221.009 117.033 221.009 99.9964V42.7851C221.009 19.1528 202.015 0 178.577 0H94.4484C81.7504 0 61.4265 3.80939 56.739 5.60826L37.2547 11.6045C14.4471 18.1299 0 35.6954 0 58.6575V58.9044L13.0479 207.082C13.9574 217.452 18.6798 227.082 26.3056 234.101C33.9315 241.155 43.8311 245 54.1854 245H237.59C243.747 245 249.484 242.99 254.136 239.498V239.533L282.856 220.098C294.259 212.62 297.268 195.019 285.479 184.473Z" fill="#FF4785"/>
<path d="M242.383 194.314L201.525 157.772C189.911 147.402 183.265 132.517 183.265 116.856V64.4067C183.265 42.7496 165.844 25.1841 144.366 25.1841H54.92C33.4417 25.1841 16.0212 42.7496 16.0212 64.4067L27.9847 200.028C29.4889 217.135 43.6911 230.221 60.7268 230.221H108.231H144.401H228.88C247.595 230.221 256.375 206.835 242.383 194.314Z" fill="white"/>
<mask id="mask0" mask-type="alpha" maskUnits="userSpaceOnUse" x="12" y="22" width="182" height="228">
<path fill-rule="evenodd" clip-rule="evenodd" d="M19.3449 232.091L12.3487 43.9493C12.1038 37.7414 16.8263 32.4858 22.9829 32.0978L181.691 22.0806C187.953 21.6926 193.34 26.4896 193.76 32.8033C193.76 33.0502 193.795 33.2971 193.795 33.5087V238.51C193.795 244.824 188.722 249.974 182.426 249.974C182.251 249.974 182.076 249.974 181.901 249.974L30.189 243.131C24.2772 242.849 19.5548 238.052 19.3449 232.091Z" fill="white"/>
</mask>
<g mask="url(#mask0)">
<path d="M118.445 107.968C118.445 112.412 148.213 110.296 152.236 107.156C152.236 76.7872 136.075 60.8442 106.481 60.8442C76.8874 60.8442 60.3065 77.0341 60.3065 101.337C60.3065 143.663 116.976 144.474 116.976 167.578C116.976 174.068 113.827 177.912 106.901 177.912C97.8759 177.912 94.3079 173.256 94.7277 157.455C94.7277 154.033 60.3065 152.975 59.2571 157.455C56.5985 195.725 80.2456 206.765 107.321 206.765C133.556 206.765 154.125 192.656 154.125 167.154C154.125 121.794 96.6166 122.994 96.6166 100.525C96.6166 91.4251 103.333 90.1906 107.321 90.1906C111.518 90.2259 119.074 90.9666 118.445 107.968Z" fill="#FF4785"/>
</g>
<mask id="mask1" mask-type="alpha" maskUnits="userSpaceOnUse" x="-7" y="20" width="185" height="232">
<path fill-rule="evenodd" clip-rule="evenodd" d="M0.420159 233.748L-6.68096 42.9966C-6.92583 36.6829 -2.13345 31.3569 4.12813 30.9689L165.04 20.8105C171.407 20.4225 176.864 25.29 177.249 31.6743C177.249 31.9212 177.284 32.1681 177.284 32.415V240.274C177.284 246.693 172.141 251.878 165.775 251.878C165.6 251.878 165.425 251.878 165.25 251.878L11.4042 244.929C5.42243 244.647 0.630044 239.78 0.420159 233.748Z" fill="white"/>
</mask>
<g mask="url(#mask1)">
<path d="M129.15 49.2042L130.234 22.5385L152.342 20.7749L153.286 48.2519C153.321 49.2042 152.587 50.0155 151.642 50.0507C151.223 50.0507 150.838 49.9449 150.523 49.6628L141.988 42.8905L131.913 50.6151C131.144 51.1795 130.094 51.0384 129.499 50.2977C129.255 50.0155 129.115 49.5922 129.15 49.2042Z" fill="#FF4785"/>
</g>
</g>
<defs>
<clipPath id="clip0">
<rect width="293" height="245" fill="white"/>
</clipPath>
</defs>
</svg>
